<svg xmlns="http://www.w3.org/2000/svg" xmlns:xlink="http://www.w3.org/1999/xlink" width="64" zoomAndPan="magnify" viewBox="0 0 48 48" height="64" preserveAspectRatio="xMidYMid meet" version="1.0"><defs><g/><clipPath id="872d5fdc65"><path d="M 0.488281 0 L 47.507812 0 L 47.507812 47 L 0.488281 47 Z M 0.488281 0 " clip-rule="nonzero"/></clipPath></defs><g clip-path="url(#872d5fdc65)"><path fill="#7e0a7e" d="M 1.539062 28.546875 L 6.363281 29.375 C 6.636719 30.210938 6.972656 31.023438 7.371094 31.804688 L 4.550781 35.789062 C 4.425781 35.972656 4.425781 36.15625 4.550781 36.335938 C 6.296875 38.996094 8.496094 41.203125 11.148438 42.960938 C 11.332031 43.085938 11.515625 43.085938 11.699219 42.960938 L 15.691406 40.125 C 16.472656 40.523438 17.285156 40.859375 18.121094 41.132812 L 18.941406 45.957031 C 18.976562 46.171875 19.101562 46.304688 19.316406 46.355469 C 22.433594 47.003906 25.550781 47.003906 28.667969 46.355469 C 28.882812 46.304688 29.007812 46.171875 29.042969 45.957031 L 29.863281 41.132812 C 30.699219 40.859375 31.511719 40.523438 32.296875 40.125 L 36.308594 42.9375 C 36.488281 43.0625 36.671875 43.0625 36.855469 42.9375 C 39.511719 41.1875 41.71875 38.988281 43.480469 36.335938 C 43.605469 36.15625 43.605469 35.972656 43.480469 35.789062 L 40.644531 31.808594 C 41.039062 31.027344 41.375 30.214844 41.644531 29.378906 L 46.472656 28.550781 C 46.691406 28.515625 46.820312 28.390625 46.867188 28.179688 C 47.511719 25.054688 47.511719 21.933594 46.867188 18.8125 C 46.820312 18.601562 46.691406 18.476562 46.472656 18.4375 L 41.652344 17.652344 C 41.375 16.804688 41.035156 15.988281 40.632812 15.195312 L 43.449219 11.179688 C 43.574219 10.996094 43.574219 10.816406 43.449219 10.632812 C 41.707031 7.980469 39.511719 5.769531 36.871094 4.007812 C 36.6875 3.882812 36.503906 3.882812 36.320312 4.007812 L 32.316406 6.867188 C 31.527344 6.472656 30.71875 6.136719 29.882812 5.855469 L 29.050781 1.019531 C 29.015625 0.808594 28.890625 0.679688 28.675781 0.632812 C 25.5625 -0.015625 22.445312 -0.015625 19.328125 0.632812 C 19.113281 0.679688 18.988281 0.8125 18.953125 1.027344 L 18.125 5.859375 C 17.292969 6.140625 16.480469 6.476562 15.695312 6.871094 L 11.683594 4.035156 C 11.5 3.90625 11.3125 3.90625 11.128906 4.035156 C 8.488281 5.789062 6.296875 7.988281 4.550781 10.632812 C 4.425781 10.816406 4.425781 10.996094 4.550781 11.179688 L 7.371094 15.171875 C 6.964844 15.96875 6.625 16.796875 6.355469 17.652344 L 1.539062 18.457031 C 1.324219 18.492188 1.1875 18.617188 1.140625 18.832031 C 0.503906 21.945312 0.507812 25.058594 1.144531 28.171875 C 1.195312 28.386719 1.324219 28.511719 1.539062 28.546875 Z M 24 10.355469 C 24.863281 10.355469 25.714844 10.441406 26.5625 10.609375 C 27.40625 10.777344 28.226562 11.027344 29.023438 11.355469 C 29.820312 11.6875 30.578125 12.089844 31.292969 12.570312 C 32.011719 13.046875 32.675781 13.59375 33.285156 14.203125 C 33.894531 14.8125 34.4375 15.476562 34.917969 16.191406 C 35.394531 16.910156 35.800781 17.664062 36.128906 18.460938 C 36.460938 19.257812 36.707031 20.078125 36.875 20.925781 C 37.042969 21.769531 37.128906 22.625 37.128906 23.484375 C 37.128906 24.347656 37.042969 25.203125 36.875 26.046875 C 36.707031 26.894531 36.460938 27.714844 36.128906 28.511719 C 35.800781 29.304688 35.394531 30.0625 34.917969 30.78125 C 34.4375 31.496094 33.894531 32.160156 33.285156 32.769531 C 32.675781 33.378906 32.011719 33.921875 31.292969 34.402344 C 30.578125 34.882812 29.820312 35.285156 29.023438 35.617188 C 28.226562 35.945312 27.40625 36.195312 26.5625 36.363281 C 25.714844 36.53125 24.863281 36.613281 24 36.613281 C 23.136719 36.613281 22.285156 36.53125 21.4375 36.363281 C 20.59375 36.195312 19.773438 35.945312 18.976562 35.617188 C 18.179688 35.285156 17.421875 34.882812 16.707031 34.402344 C 15.988281 33.921875 15.324219 33.378906 14.714844 32.769531 C 14.105469 32.160156 13.5625 31.496094 13.082031 30.78125 C 12.605469 30.0625 12.199219 29.304688 11.871094 28.511719 C 11.539062 27.714844 11.292969 26.894531 11.125 26.046875 C 10.957031 25.203125 10.871094 24.347656 10.871094 23.484375 C 10.871094 22.625 10.957031 21.769531 11.125 20.925781 C 11.292969 20.078125 11.539062 19.257812 11.871094 18.460938 C 12.199219 17.664062 12.605469 16.910156 13.082031 16.191406 C 13.5625 15.476562 14.105469 14.8125 14.714844 14.203125 C 15.324219 13.59375 15.988281 13.046875 16.707031 12.570312 C 17.421875 12.089844 18.179688 11.6875 18.976562 11.355469 C 19.773438 11.027344 20.59375 10.777344 21.4375 10.609375 C 22.285156 10.441406 23.136719 10.355469 24 10.355469 Z M 15.246094 28.0625 C 15.359375 28.066406 15.472656 28.066406 15.582031 28.0625 C 15.691406 28.066406 15.796875 28.066406 15.902344 28.0625 C 15.96875 28.054688 16.03125 28.042969 16.09375 28.019531 C 16.132812 28 16.167969 27.972656 16.195312 27.941406 C 16.21875 27.90625 16.238281 27.871094 16.25 27.832031 L 16.996094 25.644531 L 20.789062 25.644531 L 21.570312 27.863281 C 21.585938 27.898438 21.605469 27.933594 21.628906 27.96875 C 21.65625 28 21.6875 28.023438 21.730469 28.039062 C 21.792969 28.058594 21.855469 28.070312 21.921875 28.070312 L 22.273438 28.070312 C 22.390625 28.078125 22.503906 28.078125 22.617188 28.070312 C 22.6875 28.070312 22.75 28.050781 22.804688 28.007812 C 22.847656 27.972656 22.867188 27.925781 22.855469 27.867188 C 22.851562 27.78125 22.832031 27.695312 22.800781 27.613281 L 19.753906 19.152344 C 19.734375 19.105469 19.710938 19.066406 19.675781 19.027344 C 19.636719 18.988281 19.589844 18.960938 19.535156 18.945312 C 19.457031 18.921875 19.378906 18.910156 19.296875 18.90625 L 18.574219 18.90625 C 18.496094 18.910156 18.421875 18.921875 18.351562 18.945312 C 18.300781 18.957031 18.253906 18.984375 18.21875 19.023438 C 18.183594 19.058594 18.15625 19.101562 18.140625 19.148438 L 15.09375 27.597656 C 15.058594 27.679688 15.039062 27.761719 15.035156 27.847656 C 15.023438 27.90625 15.039062 27.953125 15.082031 27.992188 C 15.132812 28.03125 15.1875 28.054688 15.246094 28.0625 Z M 18.863281 20.144531 L 20.449219 24.683594 L 17.289062 24.683594 Z M 24.449219 28.019531 L 24.636719 28.0625 C 24.832031 28.082031 25.027344 28.082031 25.21875 28.0625 L 25.402344 28.019531 C 25.441406 28.003906 25.476562 27.980469 25.503906 27.949219 C 25.523438 27.921875 25.53125 27.886719 25.53125 27.851562 L 25.53125 24.574219 L 26.566406 24.574219 C 27.066406 24.585938 27.550781 24.519531 28.027344 24.367188 C 28.410156 24.238281 28.753906 24.039062 29.050781 23.769531 C 29.339844 23.503906 29.554688 23.191406 29.699219 22.828125 C 29.851562 22.433594 29.925781 22.023438 29.921875 21.597656 C 29.925781 21.277344 29.875 20.964844 29.777344 20.660156 C 29.679688 20.386719 29.535156 20.136719 29.347656 19.910156 C 29.164062 19.695312 28.945312 19.511719 28.695312 19.367188 C 28.460938 19.226562 28.210938 19.128906 27.945312 19.066406 C 27.734375 19.019531 27.519531 18.984375 27.304688 18.964844 C 27.117188 18.945312 26.925781 18.9375 26.738281 18.941406 L 24.792969 18.941406 C 24.667969 18.9375 24.558594 18.976562 24.460938 19.054688 C 24.347656 19.164062 24.296875 19.296875 24.3125 19.453125 L 24.3125 27.863281 C 24.308594 27.898438 24.320312 27.929688 24.339844 27.960938 C 24.371094 27.992188 24.40625 28.011719 24.449219 28.019531 Z M 25.53125 19.9375 L 26.648438 19.9375 C 26.863281 19.9375 27.074219 19.953125 27.285156 19.984375 C 27.511719 20.019531 27.722656 20.097656 27.917969 20.21875 C 28.132812 20.359375 28.292969 20.542969 28.40625 20.773438 C 28.558594 21.0625 28.625 21.375 28.613281 21.703125 C 28.617188 21.960938 28.574219 22.210938 28.488281 22.453125 C 28.410156 22.679688 28.285156 22.882812 28.117188 23.054688 C 27.941406 23.226562 27.738281 23.355469 27.507812 23.441406 C 27.210938 23.546875 26.910156 23.59375 26.597656 23.582031 L 25.53125 23.582031 Z M 31.78125 27.949219 C 31.773438 27.921875 31.773438 27.890625 31.78125 27.863281 L 31.78125 19.109375 C 31.777344 19.074219 31.789062 19.039062 31.8125 19.011719 C 31.839844 18.976562 31.875 18.953125 31.917969 18.945312 L 32.105469 18.902344 C 32.199219 18.894531 32.289062 18.894531 32.382812 18.902344 C 32.480469 18.894531 32.578125 18.894531 32.675781 18.902344 L 32.863281 18.945312 C 32.90625 18.957031 32.9375 18.980469 32.960938 19.011719 C 32.980469 19.042969 32.992188 19.074219 32.992188 19.109375 L 32.992188 27.863281 C 32.992188 27.898438 32.980469 27.929688 32.960938 27.960938 C 32.9375 27.992188 32.90625 28.015625 32.863281 28.027344 L 32.675781 28.070312 C 32.578125 28.078125 32.480469 28.078125 32.382812 28.070312 C 32.289062 28.078125 32.191406 28.078125 32.097656 28.070312 L 31.90625 28.027344 C 31.851562 28.023438 31.808594 27.996094 31.78125 27.949219 Z M 31.78125 27.949219 " fill-opacity="1" fill-rule="nonzero"/></g><g fill="#7e0a7e" fill-opacity="1"><g transform="translate(12.839529, 36.074797)"><g><path d="M 0.8125 0 L 0.78125 -0.15625 L 0.765625 -0.15625 C 0.710938 -0.0820312 0.660156 -0.0351562 0.609375 -0.015625 C 0.554688 0.00390625 0.492188 0.015625 0.421875 0.015625 C 0.316406 0.015625 0.234375 -0.0078125 0.171875 -0.0625 C 0.117188 -0.113281 0.09375 -0.1875 0.09375 -0.28125 C 0.09375 -0.5 0.257812 -0.613281 0.59375 -0.625 L 0.765625 -0.625 L 0.765625 -0.6875 C 0.765625 -0.769531 0.75 -0.832031 0.71875 -0.875 C 0.6875 -0.914062 0.628906 -0.9375 0.546875 -0.9375 C 0.460938 -0.9375 0.363281 -0.910156 0.25 -0.859375 L 0.203125 -0.96875 C 0.253906 -1 0.3125 -1.019531 0.375 -1.03125 C 0.4375 -1.050781 0.5 -1.0625 0.5625 -1.0625 C 0.6875 -1.0625 0.773438 -1.03125 0.828125 -0.96875 C 0.890625 -0.914062 0.921875 -0.832031 0.921875 -0.71875 L 0.921875 0 Z M 0.453125 -0.109375 C 0.546875 -0.109375 0.617188 -0.132812 0.671875 -0.1875 C 0.734375 -0.25 0.765625 -0.328125 0.765625 -0.421875 L 0.765625 -0.515625 L 0.609375 -0.5 C 0.484375 -0.5 0.390625 -0.476562 0.328125 -0.4375 C 0.273438 -0.40625 0.25 -0.351562 0.25 -0.28125 C 0.25 -0.226562 0.265625 -0.1875 0.296875 -0.15625 C 0.335938 -0.125 0.390625 -0.109375 0.453125 -0.109375 Z M 0.453125 -0.109375 "/></g></g></g></svg>