<svg xmlns="http://www.w3.org/2000/svg" xmlns:xlink="http://www.w3.org/1999/xlink" width="64" zoomAndPan="magnify" viewBox="0 0 48 48" height="64" preserveAspectRatio="xMidYMid meet" version="1.0"><defs><g/><clipPath id="52a2131c54"><path d="M 1.625 17 L 47 17 L 47 31 L 1.625 31 Z M 1.625 17 " clip-rule="nonzero"/></clipPath><clipPath id="cc4199261e"><path d="M 1.625 1.835938 L 47 1.835938 L 47 46.652344 L 1.625 46.652344 Z M 1.625 1.835938 " clip-rule="nonzero"/></clipPath><clipPath id="8747da0235"><path d="M 38.171875 32.148438 L 47.175781 32.148438 L 47.175781 41.574219 L 38.171875 41.574219 Z M 38.171875 32.148438 " clip-rule="nonzero"/></clipPath></defs><g clip-path="url(#52a2131c54)"><path fill="#7e0a7e" d="M 3.777344 28.757812 L 44.003906 28.757812 C 44.238281 27.390625 44.621094 24.964844 44.621094 24.058594 C 44.621094 23.152344 44.238281 20.730469 44.003906 19.359375 L 3.777344 19.359375 L 3.191406 24.058594 Z M 45.183594 30.164062 L 2.535156 30.164062 L 1.773438 24.058594 L 2.535156 17.953125 L 45.183594 17.953125 L 45.285156 18.53125 C 45.316406 18.699219 46.03125 22.660156 46.03125 24.058594 C 46.03125 25.457031 45.316406 29.417969 45.285156 29.585938 L 45.183594 30.164062 " fill-opacity="1" fill-rule="nonzero"/></g><path fill="#7e0a7e" d="M 19.796875 21.34375 L 18.222656 27.277344 L 16.695312 27.277344 L 15.863281 24.003906 L 15.082031 27.277344 L 13.488281 27.277344 L 11.910156 21.34375 L 13.625 21.34375 L 14.453125 24.757812 L 15.261719 21.34375 L 16.691406 21.34375 L 17.570312 24.765625 L 18.402344 21.34375 L 19.796875 21.34375 " fill-opacity="1" fill-rule="nonzero"/><path fill="#7e0a7e" d="M 27.804688 21.34375 L 26.230469 27.277344 L 24.699219 27.277344 L 23.871094 24.003906 L 23.089844 27.277344 L 21.492188 27.277344 L 19.917969 21.34375 L 21.632812 21.34375 L 22.460938 24.757812 L 23.269531 21.34375 L 24.699219 21.34375 L 25.578125 24.765625 L 26.410156 21.34375 L 27.804688 21.34375 " fill-opacity="1" fill-rule="nonzero"/><path fill="#7e0a7e" d="M 35.808594 21.34375 L 34.238281 27.277344 L 32.707031 27.277344 L 31.878906 24.003906 L 31.09375 27.277344 L 29.5 27.277344 L 27.925781 21.34375 L 29.636719 21.34375 L 30.46875 24.757812 L 31.277344 21.34375 L 32.707031 21.34375 L 33.585938 24.765625 L 34.417969 21.34375 L 35.808594 21.34375 " fill-opacity="1" fill-rule="nonzero"/><path fill="#7e0a7e" d="M 8.585938 35.453125 C 9.503906 34.960938 11.507812 34 14.4375 33.234375 C 14.136719 32.03125 13.902344 30.765625 13.726562 29.460938 L 5.582031 29.460938 C 6.230469 31.648438 7.253906 33.671875 8.585938 35.453125 " fill-opacity="1" fill-rule="nonzero"/><path fill="#7e0a7e" d="M 24.453125 14.472656 L 24.453125 18.65625 L 32.046875 18.65625 C 31.816406 16.964844 31.484375 15.394531 31.066406 13.96875 C 28.679688 14.265625 26.46875 14.417969 24.453125 14.472656 " fill-opacity="1" fill-rule="nonzero"/><path fill="#7e0a7e" d="M 22.742188 14.496094 C 20.359375 14.496094 18.300781 14.359375 16.601562 14.175781 C 16.527344 14.167969 16.457031 14.160156 16.386719 14.152344 C 15.992188 15.527344 15.679688 17.035156 15.457031 18.65625 L 23.054688 18.65625 L 23.054688 14.496094 C 22.949219 14.496094 22.84375 14.496094 22.742188 14.496094 " fill-opacity="1" fill-rule="nonzero"/><path fill="#7e0a7e" d="M 8.648438 12.582031 C 7.285156 14.386719 6.238281 16.4375 5.582031 18.65625 L 13.726562 18.65625 C 13.949219 17.003906 14.269531 15.417969 14.6875 13.933594 C 11.597656 13.484375 9.542969 12.878906 8.648438 12.582031 " fill-opacity="1" fill-rule="nonzero"/><path fill="#7e0a7e" d="M 16.089844 32.851562 C 16.339844 32.800781 16.589844 32.75 16.847656 32.703125 C 18.871094 32.335938 20.949219 32.148438 23.054688 32.140625 L 23.054688 29.460938 L 15.460938 29.460938 C 15.621094 30.65625 15.832031 31.789062 16.089844 32.851562 " fill-opacity="1" fill-rule="nonzero"/><path fill="#7e0a7e" d="M 16.214844 38.285156 C 15.671875 37.15625 15.199219 35.914062 14.804688 34.585938 C 12.25 35.253906 10.421875 36.085938 9.484375 36.5625 C 12 39.453125 15.371094 41.578125 19.199219 42.542969 C 18.085938 41.507812 17.078125 40.074219 16.214844 38.285156 " fill-opacity="1" fill-rule="nonzero"/><path fill="#7e0a7e" d="M 31.289062 38.285156 C 30.410156 40.117188 29.371094 41.574219 28.230469 42.617188 C 32.144531 41.695312 35.59375 39.5625 38.167969 36.640625 C 36.25 35.859375 34.40625 35.253906 32.640625 34.796875 C 32.257812 36.046875 31.804688 37.214844 31.289062 38.285156 " fill-opacity="1" fill-rule="nonzero"/><path fill="#7e0a7e" d="M 16.457031 34.203125 C 17.960938 39.304688 20.511719 42.539062 23.054688 43.050781 L 23.054688 33.550781 C 20.792969 33.550781 18.8125 33.769531 17.167969 34.066406 C 16.925781 34.109375 16.6875 34.15625 16.457031 34.203125 " fill-opacity="1" fill-rule="nonzero"/><path fill="#7e0a7e" d="M 24.453125 33.574219 L 24.453125 43.050781 C 26.960938 42.546875 29.480469 39.386719 30.992188 34.40625 C 28.640625 33.902344 26.449219 33.652344 24.453125 33.574219 " fill-opacity="1" fill-rule="nonzero"/><path fill="#7e0a7e" d="M 24.453125 5.070312 L 24.453125 13.074219 C 26.339844 13.023438 28.40625 12.882812 30.632812 12.613281 C 29.097656 8.269531 26.769531 5.53125 24.453125 5.070312 " fill-opacity="1" fill-rule="nonzero"/><path fill="#7e0a7e" d="M 16.214844 9.832031 C 17.078125 8.042969 18.085938 6.613281 19.199219 5.574219 C 15.433594 6.523438 12.109375 8.597656 9.609375 11.417969 C 10.648438 11.726562 12.515625 12.210938 15.105469 12.582031 C 15.433594 11.609375 15.804688 10.6875 16.214844 9.832031 " fill-opacity="1" fill-rule="nonzero"/><path fill="#7e0a7e" d="M 16.816406 12.792969 C 18.53125 12.976562 20.625 13.109375 23.054688 13.097656 L 23.054688 5.070312 C 20.703125 5.539062 18.34375 8.34375 16.8125 12.792969 C 16.8125 12.792969 16.816406 12.792969 16.816406 12.792969 " fill-opacity="1" fill-rule="nonzero"/><path fill="#7e0a7e" d="M 24.453125 32.167969 C 25.234375 32.195312 26.019531 32.246094 26.808594 32.324219 C 28.320312 32.472656 29.839844 32.71875 31.367188 33.050781 C 31.644531 31.929688 31.875 30.730469 32.046875 29.460938 L 24.453125 29.460938 L 24.453125 32.167969 " fill-opacity="1" fill-rule="nonzero"/><path fill="#7e0a7e" d="M 32.765625 13.738281 C 33.210938 15.277344 33.546875 16.933594 33.777344 18.65625 L 42.136719 18.65625 C 41.476562 16.421875 40.417969 14.351562 39.039062 12.539062 C 36.84375 13.054688 34.746094 13.445312 32.765625 13.738281 " fill-opacity="1" fill-rule="nonzero"/><path fill="#7e0a7e" d="M 31.289062 9.832031 C 31.675781 10.632812 32.023438 11.488281 32.335938 12.390625 C 34.144531 12.125 36.046875 11.78125 38.039062 11.332031 C 35.480469 8.484375 32.078125 6.410156 28.230469 5.503906 C 29.371094 6.546875 30.410156 8 31.289062 9.832031 " fill-opacity="1" fill-rule="nonzero"/><path fill="#7e0a7e" d="M 33.015625 33.445312 C 34.683594 33.882812 36.351562 34.425781 38.011719 35.074219 L 36.210938 30.21875 L 41.160156 32.058594 C 41.546875 31.222656 41.875 30.355469 42.136719 29.460938 L 33.78125 29.460938 C 33.59375 30.84375 33.339844 32.179688 33.015625 33.445312 " fill-opacity="1" fill-rule="nonzero"/><g clip-path="url(#cc4199261e)"><path fill="#7e0a7e" d="M 23.859375 1.835938 C 11.605469 1.835938 1.636719 11.804688 1.636719 24.058594 C 1.636719 36.3125 11.605469 46.285156 23.859375 46.285156 C 30.058594 46.285156 35.667969 43.734375 39.703125 39.628906 L 39.050781 37.867188 C 35.289062 42 29.875 44.597656 23.859375 44.597656 C 14.40625 44.597656 6.429688 38.171875 4.050781 29.460938 C 3.582031 27.738281 3.324219 25.929688 3.324219 24.058594 C 3.324219 22.191406 3.582031 20.378906 4.050781 18.65625 C 6.429688 9.945312 14.40625 3.523438 23.859375 3.523438 C 33.316406 3.523438 41.292969 9.945312 43.671875 18.65625 C 44.140625 20.378906 44.398438 22.191406 44.398438 24.058594 C 44.398438 25.929688 44.140625 27.738281 43.671875 29.460938 C 43.378906 30.535156 43 31.574219 42.542969 32.574219 L 44.132812 33.164062 C 45.386719 30.382812 46.085938 27.300781 46.085938 24.058594 C 46.085938 11.804688 36.117188 1.835938 23.859375 1.835938 " fill-opacity="1" fill-rule="nonzero"/></g><g clip-path="url(#8747da0235)"><path fill="#7e0a7e" d="M 47.496094 40.363281 L 44.054688 36.921875 L 46.761719 35.386719 L 38.195312 32.207031 L 41.378906 40.773438 L 42.910156 38.066406 L 46.351562 41.507812 L 47.496094 40.363281 " fill-opacity="1" fill-rule="nonzero"/></g><g fill="#7e0a7e" fill-opacity="1"><g transform="translate(18.899937, 31.059285)"><g><path d="M 0.8125 0 L 0.78125 -0.15625 L 0.765625 -0.15625 C 0.710938 -0.0820312 0.660156 -0.0351562 0.609375 -0.015625 C 0.554688 0.00390625 0.492188 0.015625 0.421875 0.015625 C 0.316406 0.015625 0.234375 -0.0078125 0.171875 -0.0625 C 0.117188 -0.113281 0.09375 -0.1875 0.09375 -0.28125 C 0.09375 -0.5 0.257812 -0.613281 0.59375 -0.625 L 0.765625 -0.625 L 0.765625 -0.6875 C 0.765625 -0.769531 0.75 -0.832031 0.71875 -0.875 C 0.6875 -0.914062 0.628906 -0.9375 0.546875 -0.9375 C 0.460938 -0.9375 0.363281 -0.910156 0.25 -0.859375 L 0.203125 -0.96875 C 0.253906 -1 0.3125 -1.019531 0.375 -1.03125 C 0.4375 -1.050781 0.5 -1.0625 0.5625 -1.0625 C 0.6875 -1.0625 0.773438 -1.03125 0.828125 -0.96875 C 0.890625 -0.914062 0.921875 -0.832031 0.921875 -0.71875 L 0.921875 0 Z M 0.453125 -0.109375 C 0.546875 -0.109375 0.617188 -0.132812 0.671875 -0.1875 C 0.734375 -0.25 0.765625 -0.328125 0.765625 -0.421875 L 0.765625 -0.515625 L 0.609375 -0.5 C 0.484375 -0.5 0.390625 -0.476562 0.328125 -0.4375 C 0.273438 -0.40625 0.25 -0.351562 0.25 -0.28125 C 0.25 -0.226562 0.265625 -0.1875 0.296875 -0.15625 C 0.335938 -0.125 0.390625 -0.109375 0.453125 -0.109375 Z M 0.453125 -0.109375 "/></g></g></g></svg>