<svg xmlns="http://www.w3.org/2000/svg" xmlns:xlink="http://www.w3.org/1999/xlink" width="64" zoomAndPan="magnify" viewBox="0 0 48 48" height="64" preserveAspectRatio="xMidYMid meet" version="1.0"><defs><g/><clipPath id="28936f3305"><path d="M 0.488281 1 L 46.777344 1 L 46.777344 47 L 0.488281 47 Z M 0.488281 1 " clip-rule="nonzero"/></clipPath></defs><g clip-path="url(#28936f3305)"><path fill="#7e0a7e" d="M 2.28125 20.679688 L 15.40625 7.53125 L 19.246094 11.390625 C 18.699219 13.320312 19.585938 15.433594 21.355469 16.453125 L 21.355469 29.035156 C 19.992188 29.808594 19.085938 31.285156 19.085938 32.964844 C 19.085938 34.171875 19.5625 35.324219 20.414062 36.175781 C 21.265625 37.027344 22.421875 37.507812 23.628906 37.507812 C 24.832031 37.507812 25.988281 37.027344 26.839844 36.175781 C 27.691406 35.324219 28.167969 34.171875 28.167969 32.964844 C 28.167969 31.285156 27.261719 29.808594 25.898438 29.035156 L 25.898438 18 L 30.597656 22.746094 C 30.441406 23.085938 30.441406 23.472656 30.441406 23.882812 C 30.441406 25.085938 30.917969 26.242188 31.769531 27.09375 C 32.621094 27.945312 33.777344 28.421875 34.984375 28.421875 C 36.1875 28.421875 37.34375 27.945312 38.195312 27.09375 C 39.046875 26.242188 39.523438 25.085938 39.523438 23.882812 C 39.523438 22.675781 39.046875 21.523438 38.195312 20.667969 C 37.34375 19.816406 36.1875 19.339844 34.984375 19.339844 C 34.574219 19.339844 34.1875 19.339844 33.847656 19.5 L 28.011719 13.660156 C 28.601562 11.550781 27.511719 9.234375 25.398438 8.347656 C 24.421875 7.984375 23.398438 7.894531 22.492188 8.144531 L 18.632812 4.304688 L 20.425781 2.535156 C 22.195312 0.738281 25.058594 0.738281 26.828125 2.535156 L 44.976562 20.679688 C 46.769531 22.449219 46.769531 25.3125 44.976562 27.082031 L 26.828125 45.230469 C 25.058594 47.023438 22.195312 47.023438 20.425781 45.230469 L 2.28125 27.082031 C 0.484375 25.3125 0.484375 22.449219 2.28125 20.679688 Z M 2.28125 20.679688 " fill-opacity="1" fill-rule="nonzero"/></g><g fill="#7e0a7e" fill-opacity="1"><g transform="translate(12.839529, 27.297654)"><g><path d="M 0.8125 0 L 0.78125 -0.15625 L 0.765625 -0.15625 C 0.710938 -0.0820312 0.660156 -0.0351562 0.609375 -0.015625 C 0.554688 0.00390625 0.492188 0.015625 0.421875 0.015625 C 0.316406 0.015625 0.234375 -0.0078125 0.171875 -0.0625 C 0.117188 -0.113281 0.09375 -0.1875 0.09375 -0.28125 C 0.09375 -0.5 0.257812 -0.613281 0.59375 -0.625 L 0.765625 -0.625 L 0.765625 -0.6875 C 0.765625 -0.769531 0.75 -0.832031 0.71875 -0.875 C 0.6875 -0.914062 0.628906 -0.9375 0.546875 -0.9375 C 0.460938 -0.9375 0.363281 -0.910156 0.25 -0.859375 L 0.203125 -0.96875 C 0.253906 -1 0.3125 -1.019531 0.375 -1.03125 C 0.4375 -1.050781 0.5 -1.0625 0.5625 -1.0625 C 0.6875 -1.0625 0.773438 -1.03125 0.828125 -0.96875 C 0.890625 -0.914062 0.921875 -0.832031 0.921875 -0.71875 L 0.921875 0 Z M 0.453125 -0.109375 C 0.546875 -0.109375 0.617188 -0.132812 0.671875 -0.1875 C 0.734375 -0.25 0.765625 -0.328125 0.765625 -0.421875 L 0.765625 -0.515625 L 0.609375 -0.5 C 0.484375 -0.5 0.390625 -0.476562 0.328125 -0.4375 C 0.273438 -0.40625 0.25 -0.351562 0.25 -0.28125 C 0.25 -0.226562 0.265625 -0.1875 0.296875 -0.15625 C 0.335938 -0.125 0.390625 -0.109375 0.453125 -0.109375 Z M 0.453125 -0.109375 "/></g></g></g></svg>