<svg xmlns="http://www.w3.org/2000/svg" xmlns:xlink="http://www.w3.org/1999/xlink" width="64" zoomAndPan="magnify" viewBox="0 0 48 48" height="64" preserveAspectRatio="xMidYMid meet" version="1.0"><defs><g/><clipPath id="22e4e9c8c2"><path d="M 18 27 L 43.398438 27 L 43.398438 43.640625 L 18 43.640625 Z M 18 27 " clip-rule="nonzero"/></clipPath><clipPath id="5f8aad484d"><path d="M 4.460938 28 L 18 28 L 18 39 L 4.460938 39 Z M 4.460938 28 " clip-rule="nonzero"/></clipPath><clipPath id="3a687278d1"><path d="M 4.460938 19 L 33 19 L 33 30 L 4.460938 30 Z M 4.460938 19 " clip-rule="nonzero"/></clipPath><clipPath id="be4440a2a6"><path d="M 4.460938 4.703125 L 33 4.703125 L 33 12 L 4.460938 12 Z M 4.460938 4.703125 " clip-rule="nonzero"/></clipPath><clipPath id="4d0a1d31e6"><path d="M 4.460938 10 L 33 10 L 33 21 L 4.460938 21 Z M 4.460938 10 " clip-rule="nonzero"/></clipPath></defs><g clip-path="url(#22e4e9c8c2)"><path fill="#7e0a7e" d="M 24 36.101562 C 22.457031 36.101562 21.207031 34.851562 21.207031 33.3125 C 21.207031 31.773438 22.457031 30.519531 24 30.519531 C 25.539062 30.519531 26.789062 31.773438 26.789062 33.3125 C 26.789062 33.695312 26.476562 34.007812 26.09375 34.007812 C 25.707031 34.007812 25.394531 33.695312 25.394531 33.3125 C 25.394531 32.542969 24.765625 31.917969 24 31.917969 C 23.230469 31.917969 22.601562 32.542969 22.601562 33.3125 C 22.601562 34.082031 23.230469 34.707031 24 34.707031 C 25.539062 34.707031 26.789062 35.957031 26.789062 37.5 C 26.789062 39.039062 25.539062 40.289062 24 40.289062 C 22.457031 40.289062 21.207031 39.039062 21.207031 37.5 C 21.207031 37.113281 21.519531 36.800781 21.90625 36.800781 C 22.289062 36.800781 22.601562 37.113281 22.601562 37.5 C 22.601562 38.265625 23.230469 38.894531 24 38.894531 C 24.765625 38.894531 25.394531 38.265625 25.394531 37.5 C 25.394531 36.730469 24.765625 36.101562 24 36.101562 Z M 28.183594 33.3125 C 28.183594 31.773438 29.4375 30.519531 30.976562 30.519531 C 32.515625 30.519531 33.769531 31.773438 33.769531 33.3125 L 33.769531 37.5 C 33.769531 38.011719 33.617188 38.492188 33.371094 38.90625 L 33.5625 39.097656 C 33.835938 39.371094 33.835938 39.8125 33.5625 40.085938 C 33.425781 40.222656 33.25 40.289062 33.070312 40.289062 C 32.890625 40.289062 32.714844 40.222656 32.578125 40.085938 L 32.386719 39.894531 C 31.972656 40.140625 31.492188 40.289062 30.976562 40.289062 C 29.4375 40.289062 28.183594 39.039062 28.183594 37.5 Z M 35.164062 31.21875 C 35.164062 30.832031 35.476562 30.519531 35.859375 30.519531 C 36.246094 30.519531 36.558594 30.832031 36.558594 31.21875 L 36.558594 38.894531 L 40.046875 38.894531 C 40.433594 38.894531 40.746094 39.207031 40.746094 39.59375 C 40.746094 39.976562 40.433594 40.289062 40.046875 40.289062 L 35.859375 40.289062 C 35.476562 40.289062 35.164062 39.976562 35.164062 39.59375 Z M 19.113281 43.777344 L 42.839844 43.777344 C 43.222656 43.777344 43.535156 43.464844 43.535156 43.082031 L 43.535156 27.730469 C 43.535156 27.34375 43.222656 27.03125 42.839844 27.03125 L 19.113281 27.03125 C 18.730469 27.03125 18.417969 27.34375 18.417969 27.730469 L 18.417969 43.082031 C 18.417969 43.464844 18.730469 43.777344 19.113281 43.777344 " fill-opacity="1" fill-rule="nonzero"/></g><g clip-path="url(#5f8aad484d)"><path fill="#7e0a7e" d="M 17.019531 38.167969 L 17.019531 31.199219 C 12.007812 31.066406 6.863281 30.1875 4.460938 28.507812 L 4.460938 34.707031 C 4.460938 36.046875 9.226562 37.957031 17.019531 38.167969 " fill-opacity="1" fill-rule="nonzero"/></g><g clip-path="url(#3a687278d1)"><path fill="#7e0a7e" d="M 4.460938 26.332031 C 4.460938 27.671875 9.226562 29.585938 17.019531 29.796875 L 17.019531 27.730469 C 17.019531 26.574219 17.957031 25.636719 19.113281 25.636719 L 32.371094 25.636719 L 32.371094 19.425781 C 29.808594 21.21875 24.089844 22.148438 18.417969 22.148438 C 12.742188 22.148438 7.023438 21.21875 4.460938 19.425781 L 4.460938 26.332031 " fill-opacity="1" fill-rule="nonzero"/></g><g clip-path="url(#be4440a2a6)"><path fill="#7e0a7e" d="M 32.371094 8.191406 C 32.371094 6.769531 26.9375 4.703125 18.417969 4.703125 C 9.898438 4.703125 4.460938 6.769531 4.460938 8.191406 C 4.460938 9.613281 9.898438 11.679688 18.417969 11.679688 C 26.9375 11.679688 32.371094 9.613281 32.371094 8.191406 " fill-opacity="1" fill-rule="nonzero"/></g><g clip-path="url(#4d0a1d31e6)"><path fill="#7e0a7e" d="M 4.460938 17.261719 C 4.460938 18.683594 9.898438 20.75 18.417969 20.75 C 26.9375 20.75 32.371094 18.683594 32.371094 17.261719 L 32.371094 10.351562 C 29.808594 12.144531 24.089844 13.074219 18.417969 13.074219 C 12.742188 13.074219 7.023438 12.144531 4.460938 10.351562 L 4.460938 17.261719 " fill-opacity="1" fill-rule="nonzero"/></g><path fill="#7e0a7e" d="M 30.976562 38.894531 C 31.097656 38.894531 31.21875 38.871094 31.332031 38.84375 L 31.179688 38.691406 C 30.910156 38.417969 30.910156 37.976562 31.179688 37.703125 C 31.453125 37.429688 31.894531 37.429688 32.167969 37.703125 L 32.320312 37.855469 C 32.351562 37.742188 32.371094 37.621094 32.371094 37.5 L 32.371094 33.3125 C 32.371094 32.542969 31.746094 31.917969 30.976562 31.917969 C 30.207031 31.917969 29.582031 32.542969 29.582031 33.3125 L 29.582031 37.5 C 29.582031 38.265625 30.207031 38.894531 30.976562 38.894531 " fill-opacity="1" fill-rule="nonzero"/><g fill="#7e0a7e" fill-opacity="1"><g transform="translate(19.691301, 31.477244)"><g><path d="M 0.8125 0 L 0.78125 -0.15625 L 0.765625 -0.15625 C 0.710938 -0.0820312 0.660156 -0.0351562 0.609375 -0.015625 C 0.554688 0.00390625 0.492188 0.015625 0.421875 0.015625 C 0.316406 0.015625 0.234375 -0.0078125 0.171875 -0.0625 C 0.117188 -0.113281 0.09375 -0.1875 0.09375 -0.28125 C 0.09375 -0.5 0.257812 -0.613281 0.59375 -0.625 L 0.765625 -0.625 L 0.765625 -0.6875 C 0.765625 -0.769531 0.75 -0.832031 0.71875 -0.875 C 0.6875 -0.914062 0.628906 -0.9375 0.546875 -0.9375 C 0.460938 -0.9375 0.363281 -0.910156 0.25 -0.859375 L 0.203125 -0.96875 C 0.253906 -1 0.3125 -1.019531 0.375 -1.03125 C 0.4375 -1.050781 0.5 -1.0625 0.5625 -1.0625 C 0.6875 -1.0625 0.773438 -1.03125 0.828125 -0.96875 C 0.890625 -0.914062 0.921875 -0.832031 0.921875 -0.71875 L 0.921875 0 Z M 0.453125 -0.109375 C 0.546875 -0.109375 0.617188 -0.132812 0.671875 -0.1875 C 0.734375 -0.25 0.765625 -0.328125 0.765625 -0.421875 L 0.765625 -0.515625 L 0.609375 -0.5 C 0.484375 -0.5 0.390625 -0.476562 0.328125 -0.4375 C 0.273438 -0.40625 0.25 -0.351562 0.25 -0.28125 C 0.25 -0.226562 0.265625 -0.1875 0.296875 -0.15625 C 0.335938 -0.125 0.390625 -0.109375 0.453125 -0.109375 Z M 0.453125 -0.109375 "/></g></g></g></svg>