<svg xmlns="http://www.w3.org/2000/svg" xmlns:xlink="http://www.w3.org/1999/xlink" width="64" zoomAndPan="magnify" viewBox="0 0 48 48" height="64" preserveAspectRatio="xMidYMid meet" version="1.0"><defs><g/><clipPath id="01297ca736"><path d="M 1.324219 8.765625 L 46.875 8.765625 L 46.875 35.949219 L 1.324219 35.949219 Z M 1.324219 8.765625 " clip-rule="nonzero"/></clipPath></defs><g clip-path="url(#01297ca736)"><path fill="#7e0a7e" d="M 24 8.789062 C 17.945312 8.789062 14.179688 11.804688 12.660156 17.855469 C 14.929688 14.839844 17.582031 13.707031 20.597656 14.457031 C 22.320312 14.886719 23.566406 16.132812 24.929688 17.515625 C 27.148438 19.785156 29.667969 22.390625 35.335938 22.390625 C 41.390625 22.390625 45.152344 19.375 46.671875 13.324219 C 44.40625 16.339844 41.753906 17.472656 38.738281 16.722656 C 37.011719 16.292969 35.789062 15.046875 34.40625 13.664062 C 32.183594 11.394531 29.667969 8.789062 24 8.789062 Z M 12.660156 22.390625 C 6.609375 22.390625 2.84375 25.40625 1.324219 31.460938 C 3.589844 28.445312 6.246094 27.3125 9.261719 28.0625 C 10.984375 28.492188 12.207031 29.738281 13.589844 31.121094 C 15.8125 33.390625 18.328125 35.996094 24 35.996094 C 30.050781 35.996094 33.816406 32.980469 35.335938 26.925781 C 33.066406 29.941406 30.414062 31.078125 27.398438 30.328125 C 25.675781 29.898438 24.453125 28.648438 23.070312 27.265625 C 20.847656 25 18.328125 22.390625 12.660156 22.390625 Z M 12.660156 22.390625 " fill-opacity="1" fill-rule="nonzero"/></g><g fill="#7e0a7e" fill-opacity="1"><g transform="translate(19.691301, 31.477244)"><g><path d="M 0.8125 0 L 0.78125 -0.15625 L 0.765625 -0.15625 C 0.710938 -0.0820312 0.660156 -0.0351562 0.609375 -0.015625 C 0.554688 0.00390625 0.492188 0.015625 0.421875 0.015625 C 0.316406 0.015625 0.234375 -0.0078125 0.171875 -0.0625 C 0.117188 -0.113281 0.09375 -0.1875 0.09375 -0.28125 C 0.09375 -0.5 0.257812 -0.613281 0.59375 -0.625 L 0.765625 -0.625 L 0.765625 -0.6875 C 0.765625 -0.769531 0.75 -0.832031 0.71875 -0.875 C 0.6875 -0.914062 0.628906 -0.9375 0.546875 -0.9375 C 0.460938 -0.9375 0.363281 -0.910156 0.25 -0.859375 L 0.203125 -0.96875 C 0.253906 -1 0.3125 -1.019531 0.375 -1.03125 C 0.4375 -1.050781 0.5 -1.0625 0.5625 -1.0625 C 0.6875 -1.0625 0.773438 -1.03125 0.828125 -0.96875 C 0.890625 -0.914062 0.921875 -0.832031 0.921875 -0.71875 L 0.921875 0 Z M 0.453125 -0.109375 C 0.546875 -0.109375 0.617188 -0.132812 0.671875 -0.1875 C 0.734375 -0.25 0.765625 -0.328125 0.765625 -0.421875 L 0.765625 -0.515625 L 0.609375 -0.5 C 0.484375 -0.5 0.390625 -0.476562 0.328125 -0.4375 C 0.273438 -0.40625 0.25 -0.351562 0.25 -0.28125 C 0.25 -0.226562 0.265625 -0.1875 0.296875 -0.15625 C 0.335938 -0.125 0.390625 -0.109375 0.453125 -0.109375 Z M 0.453125 -0.109375 "/></g></g></g></svg>