<svg xmlns="http://www.w3.org/2000/svg" xmlns:xlink="http://www.w3.org/1999/xlink" width="64" zoomAndPan="magnify" viewBox="0 0 48 48" height="64" preserveAspectRatio="xMidYMid meet" version="1.0"><defs><g/><clipPath id="64ce18d992"><path d="M 2.3125 1.902344 L 45.65625 1.902344 L 45.65625 45.25 L 2.3125 45.25 Z M 2.3125 1.902344 " clip-rule="nonzero"/></clipPath></defs><g clip-path="url(#64ce18d992)"><path fill="#7e0a7e" d="M 23.996094 1.917969 C 12.039062 1.917969 2.3125 11.601562 2.3125 23.503906 C 2.3125 35.402344 12.039062 45.089844 23.996094 45.089844 C 35.953125 45.089844 45.679688 35.402344 45.679688 23.503906 C 45.679688 11.601562 35.953125 1.917969 23.996094 1.917969 M 23.996094 4.617188 C 27.824219 4.617188 31.386719 5.757812 34.371094 7.710938 C 33.332031 8.285156 32.371094 9.496094 32.371094 12.0625 C 32.371094 13.429688 33.304688 15.011719 34.386719 16.847656 C 35.6875 19.046875 37.296875 21.785156 36.894531 23.765625 C 36.449219 25.074219 35.320312 28.042969 34.097656 31.214844 L 28.496094 15.1875 C 28.609375 15.15625 28.738281 15.136719 28.84375 15.101562 C 29.554688 14.867188 29.9375 14.105469 29.703125 13.398438 C 29.460938 12.691406 28.699219 12.316406 27.984375 12.546875 C 26.832031 12.929688 24.742188 12.921875 23.484375 12.917969 L 22.734375 12.917969 C 21.484375 12.921875 19.386719 12.929688 18.234375 12.546875 C 17.53125 12.308594 16.761719 12.691406 16.523438 13.398438 C 16.285156 14.105469 16.667969 14.867188 17.378906 15.101562 C 17.949219 15.292969 18.625 15.398438 19.316406 15.472656 L 22.648438 24.101562 L 19.496094 32.019531 L 14.109375 15.246094 C 14.308594 15.199219 14.519531 15.164062 14.699219 15.101562 C 15.410156 14.867188 15.796875 14.105469 15.558594 13.398438 C 15.320312 12.691406 14.554688 12.308594 13.84375 12.546875 C 12.691406 12.929688 10.597656 12.917969 9.34375 12.917969 L 8.96875 12.917969 C 8.726562 12.917969 8.527344 12.898438 8.320312 12.882812 C 11.738281 7.894531 17.488281 4.617188 23.996094 4.617188 M 5.019531 23.503906 C 5.019531 21.382812 5.390625 19.347656 6.039062 17.441406 L 14.355469 39.742188 C 8.78125 36.449219 5.019531 30.414062 5.019531 23.503906 M 18.597656 41.601562 L 24.085938 27.820312 L 29.410156 41.597656 C 27.691406 42.105469 25.875 42.390625 23.996094 42.390625 C 22.121094 42.390625 20.3125 42.105469 18.597656 41.601562 M 33.695312 39.703125 C 35.453125 35.21875 38.476562 27.457031 39.386719 24.832031 L 39.421875 24.84375 C 39.460938 24.734375 39.5 24.59375 39.527344 24.429688 C 39.832031 23.582031 40.09375 22.808594 40.300781 22.15625 C 40.972656 20.046875 41.398438 18.195312 41.621094 16.554688 C 42.480469 18.707031 42.96875 21.046875 42.96875 23.503906 C 42.96875 30.386719 39.238281 36.402344 33.695312 39.703125 " fill-opacity="1" fill-rule="nonzero"/></g><g fill="#7e0a7e" fill-opacity="1"><g transform="translate(17.437081, 34.193978)"><g><path d="M 0.8125 0 L 0.78125 -0.15625 L 0.765625 -0.15625 C 0.710938 -0.0820312 0.660156 -0.0351562 0.609375 -0.015625 C 0.554688 0.00390625 0.492188 0.015625 0.421875 0.015625 C 0.316406 0.015625 0.234375 -0.0078125 0.171875 -0.0625 C 0.117188 -0.113281 0.09375 -0.1875 0.09375 -0.28125 C 0.09375 -0.5 0.257812 -0.613281 0.59375 -0.625 L 0.765625 -0.625 L 0.765625 -0.6875 C 0.765625 -0.769531 0.75 -0.832031 0.71875 -0.875 C 0.6875 -0.914062 0.628906 -0.9375 0.546875 -0.9375 C 0.460938 -0.9375 0.363281 -0.910156 0.25 -0.859375 L 0.203125 -0.96875 C 0.253906 -1 0.3125 -1.019531 0.375 -1.03125 C 0.4375 -1.050781 0.5 -1.0625 0.5625 -1.0625 C 0.6875 -1.0625 0.773438 -1.03125 0.828125 -0.96875 C 0.890625 -0.914062 0.921875 -0.832031 0.921875 -0.71875 L 0.921875 0 Z M 0.453125 -0.109375 C 0.546875 -0.109375 0.617188 -0.132812 0.671875 -0.1875 C 0.734375 -0.25 0.765625 -0.328125 0.765625 -0.421875 L 0.765625 -0.515625 L 0.609375 -0.5 C 0.484375 -0.5 0.390625 -0.476562 0.328125 -0.4375 C 0.273438 -0.40625 0.25 -0.351562 0.25 -0.28125 C 0.25 -0.226562 0.265625 -0.1875 0.296875 -0.15625 C 0.335938 -0.125 0.390625 -0.109375 0.453125 -0.109375 Z M 0.453125 -0.109375 "/></g></g></g></svg>